<?xml version="1.0" standalone="no"?>
<!DOCTYPE svg PUBLIC "-//W3C//DTD SVG 20010904//EN"
 "http://www.w3.org/TR/2001/REC-SVG-20010904/DTD/svg10.dtd">
<svg version="1.0" xmlns="http://www.w3.org/2000/svg"
 width="591.000000pt" height="533.000000pt" viewBox="0 0 591.000000 533.000000"
 preserveAspectRatio="xMidYMid meet">

<g transform="translate(0.000000,533.000000) scale(0.100000,-0.100000)"
fill="#000000" stroke="none">
<path d="M2447 5130 c-161 -29 -340 -85 -484 -151 -24 -10 -45 -19 -48 -19 -3
0 -36 -19 -73 -42 -133 -82 -222 -194 -222 -280 l0 -37 -81 -26 c-44 -14 -84
-25 -89 -25 -4 0 -18 15 -29 34 -31 50 -67 61 -154 48 -146 -21 -373 -64 -394
-74 -27 -13 -43 -56 -43 -118 0 -78 -30 -97 -295 -190 -66 -23 -124 -46 -129
-51 -6 -5 -17 -9 -26 -9 -9 0 -27 -11 -39 -24 -20 -21 -22 -33 -20 -95 2 -39
-1 -75 -6 -80 -6 -6 -39 -21 -75 -34 -55 -21 -65 -29 -65 -48 0 -33 48 -37
121 -10 l55 21 17 -31 c52 -95 51 -94 128 -90 62 3 157 21 342 65 71 16 68 18
113 -61 16 -29 41 -58 56 -65 26 -12 29 -19 34 -83 4 -39 7 -161 8 -272 0
-111 5 -221 10 -245 6 -24 13 -160 17 -303 7 -280 7 -276 23 -715 6 -162 10
-313 10 -335 -2 -103 10 -442 16 -457 4 -10 5 -106 3 -215 l-3 -198 -25 -7
c-14 -4 -72 -16 -130 -27 -234 -45 -364 -99 -468 -196 -131 -121 -145 -224
-45 -335 60 -67 101 -92 199 -123 113 -36 210 -47 407 -47 206 0 310 11 481
50 280 64 448 157 512 282 45 89 27 168 -59 256 -99 102 -228 142 -452 142
l-135 0 0 593 c-1 325 -6 711 -11 857 -6 146 -14 362 -18 480 -5 118 -18 325
-29 460 -11 135 -24 297 -27 361 l-7 117 79 26 c44 15 89 37 101 49 23 26 62
144 62 191 0 31 2 33 73 55 39 13 86 28 102 33 25 8 39 5 89 -21 53 -28 66
-31 150 -31 141 1 340 44 646 141 292 93 333 117 387 227 24 49 25 60 20 145
-7 110 -44 263 -84 343 -37 78 -143 190 -192 204 -53 15 -192 10 -304 -10z"/>
<path d="M3995 3590 c-16 -4 -57 -8 -91 -9 -97 -2 -172 -19 -275 -62 -146 -61
-262 -167 -333 -304 -35 -68 -103 -243 -111 -287 -6 -32 -13 -39 -63 -62 -166
-75 -239 -234 -244 -531 -3 -216 22 -378 75 -483 30 -61 134 -167 188 -192 55
-25 172 -27 250 -4 74 22 165 71 194 106 62 74 114 303 115 510 1 192 -21 316
-81 447 -55 120 -96 159 -181 170 l-53 6 3 43 c9 141 72 259 177 329 42 28
232 89 345 110 136 25 533 25 675 0 194 -34 254 -58 322 -129 67 -70 175 -295
185 -384 3 -25 -1 -29 -22 -32 -70 -9 -159 -73 -190 -136 -49 -102 -71 -212
-77 -384 -6 -170 0 -225 39 -357 43 -146 108 -227 216 -270 161 -65 330 -33
432 82 45 51 99 157 125 247 23 77 23 286 2 395 -19 93 -59 227 -81 270 -32
62 -96 103 -211 137 -25 8 -30 15 -33 44 -9 113 -72 289 -145 402 -58 91 -163
196 -232 230 -33 17 -121 46 -195 65 l-135 34 -280 3 c-154 2 -293 0 -310 -4z"/>
</g>
</svg>
